<?xml version="1.0"?>
<svg xmlns="http://www.w3.org/2000/svg" xmlns:xlink="http://www.w3.org/1999/xlink" xmlns:svgjs="http://svgjs.com/svgjs" version="1.1" width="512" height="512" x="0" y="0" viewBox="0 0 511.998 511.998" style="enable-background:new 0 0 512 512" xml:space="preserve" class=""><g><path xmlns="http://www.w3.org/2000/svg" d="m411.351.031h-310.705l-100.646 82.117v429.819h511.998v-429.819zm4.982 170.994h-320.668v-30.004h320.668zm-320.668 30h320.668v30.004h-320.668zm0 60.004h320.668v220.938h-34.17v-95.782h-55.416v-93.227h-140.83v93.227h-55.416v95.782h-34.836zm175.667 85.468v-23.538h25.415v63.227h-80.83v-63.227h25.415v23.538zm-55.415 93.226v-23.538h25.415v65.782h-80.831v-65.782h25.416v23.538zm55.415-23.538h25.415v23.538h30v-23.538h25.416v65.782h-80.831zm210.666 65.782h-35.665v-370.946h-380.668v370.946h-35.665v-385.577l81.332-66.359h289.333l81.333 66.359z" fill="#005792" data-original="#000000" style="" class=""/></g></svg>
