<?xml version="1.0"?>
<svg xmlns="http://www.w3.org/2000/svg" xmlns:xlink="http://www.w3.org/1999/xlink" xmlns:svgjs="http://svgjs.com/svgjs" version="1.1" width="512" height="512" x="0" y="0" viewBox="0 0 480.00375 480" style="enable-background:new 0 0 512 512" xml:space="preserve" class=""><g><path xmlns="http://www.w3.org/2000/svg" d="m472 272c-8.898438.230469-17.660156-2.210938-25.160156-7.007812-20.277344-11.988282-45.472656-11.988282-65.75 0-15.460938 9.339843-34.824219 9.339843-50.28125 0-20.273438-11.992188-45.472656-11.992188-65.746094 0-15.453125 9.339843-34.808594 9.339843-50.261719 0-9.855469-6.113282-21.277343-9.238282-32.871093-8.992188-11.589844-.242188-23 2.882812-32.851563 8.992188-7.484375 4.800781-16.238281 7.242187-25.125 7.007812-8.886719.230469-17.636719-2.207031-25.121094-7-9.851562-6.117188-21.265625-9.242188-32.855469-9-11.589843-.242188-23 2.882812-32.847656 8.992188-7.484375 4.800781-16.238281 7.242187-25.128906 7.007812-4.417969 0-8 3.582031-8 8 0 4.421875 3.582031 8 8 8 11.59375.246094 23.007812-2.878906 32.855469-9 7.484375-4.789062 16.234375-7.226562 25.121093-7 8.886719-.230469 17.640626 2.210938 25.128907 7.011719 9.847656 6.109375 21.257812 9.234375 32.847656 8.988281 11.589844.242188 23-2.886719 32.847656-9 7.484375-4.792969 16.238281-7.234375 25.128907-7 8.890624-.226562 17.644531 2.214844 25.132812 7.011719 20.273438 11.988281 45.464844 11.988281 65.738281 0 15.453125-9.34375 34.816407-9.34375 50.269531 0 20.273438 11.988281 45.464844 11.988281 65.738282 0 15.472656-9.34375 34.847656-9.34375 50.320312 0 9.855469 6.109375 21.273438 9.234375 32.871094 8.988281 4.417969 0 8-3.578125 8-8 0-4.417969-3.582031-8-8-8zm0 0" fill="#005792" data-original="#000000" style="" class=""/><path xmlns="http://www.w3.org/2000/svg" d="m0 248c0 4.421875 3.582031 8 8 8 11.574219.261719 22.976562-2.863281 32.800781-8.988281 7.515625-4.792969 16.289063-7.234375 25.199219-7.011719 8.929688-.207031 17.714844 2.257812 25.230469 7.082031 9.808593 6.0625 21.160156 9.160157 32.691406 8.917969 11.613281.238281 23.046875-2.890625 32.925781-9.007812 7.460938-4.804688 16.199219-7.242188 25.074219-6.992188 8.953125-.21875 17.769531 2.25 25.308594 7.082031 20.253906 11.917969 45.382812 11.882813 65.601562-.089843 7.464844-4.808594 16.210938-7.246094 25.089844-6.992188 8.953125-.21875 17.769531 2.25 25.308594 7.082031 20.25 11.925781 45.378906 11.898438 65.601562-.070312 7.507813-4.785157 16.269531-7.226563 25.167969-7.011719 1.734375 0 3.335938.066406 4.953125.21875 7.167969.601562 14.082031 2.933594 20.152344 6.800781 9.867187 6.109375 21.292969 9.230469 32.894531 8.980469 4.417969 0 8-3.578125 8-8 0-4.417969-3.582031-8-8-8-8.902344.238281-17.667969-2.199219-25.167969-7-4.808593-2.835938-9.9375-5.089844-15.28125-6.710938l47.601563-94.695312c1.246094-2.480469 1.117187-5.429688-.339844-7.792969s-4.035156-3.800781-6.8125-3.800781h-40v-112c0-4.417969-3.582031-8-8-8h-288c-4.417969 0-8 3.582031-8 8v136h-16v-120c0-4.417969-3.582031-8-8-8h-64c-3.949219.003906-7.304688 2.882812-7.902344 6.785156l-14.960937 97.214844h-9.136719c-4.417969 0-8 3.582031-8 8v72c0 1.453125.394531 2.878906 1.144531 4.121094l20.457031 34.097656c-4.421874 1.265625-9.003906 1.867188-13.601562 1.78125-4.417969 0-8 3.582031-8 8zm376-128c-1.730469 0-3.414062.5625-4.800781 1.601562l-29.863281 22.398438h-5.335938v-32h80v8zm-136 24v-32h80v32zm-96-80h80v32h-80zm272 32h-80v-32h80zm-96 0h-80v-32h80zm96-48h-80v-32h80zm-96 0h-80v-32h80zm-176-32h80v32h-80zm0 96h80v32h-80zm-97.136719-80h49.136719v100.691406l-10.34375-10.34375c-1.5-1.503906-3.535156-2.34375-5.65625-2.347656h-46.671875zm-30.863281 104h60.6875l21.65625 21.65625c1.5 1.503906 3.535156 2.34375 5.65625 2.34375h240c1.730469 0 3.414062-.558594 4.800781-1.597656l29.863281-22.402344h80.359376l-44.246094 88c-.273438 0-.503906 0-.800782 0-11.601562-.234375-23.023437 2.886719-32.886718 8.992188-15.503906 9.367187-34.925782 9.339843-50.402344-.070313-20.246094-11.925781-45.378906-11.898437-65.597656.070313-15.503906 9.367187-34.925782 9.339843-50.402344-.070313-9.832031-6.070313-21.214844-9.167969-32.765625-8.921875-11.578125-.261719-22.980469 2.863281-32.800781 8.992188-7.519532 4.789062-16.292969 7.230468-25.199219 7.007812-8.929687.210938-17.710937-2.253906-25.226563-7.078125-9.8125-6.0625-21.164062-9.160156-32.695312-8.921875-1.953125 0-3.769531.082031-5.511719.203125-.585937.039063-1.121093.109375-1.6875.167969-1.113281.109375-2.214843.222656-3.257812.375-.613281.097656-1.191407.199218-1.78125.3125-.914063.160156-1.800781.328125-2.65625.527344-.570313.128906-1.128907.273437-1.671875.414062-.800782.210938-1.601563.441406-2.402344.683594-.488281.148437-.984375.300781-1.457031.460937-.796875.273438-1.542969.5625-2.277344.855469-.386719.152344-.800781.296875-1.160156.457031-.890625.375-1.746094.761719-2.578125 1.160157l-.542969.25c-1 .488281-1.976563.984374-2.910156 1.480468l-20.105469-33.5625zm0 0" fill="#005792" data-original="#000000" style="" class=""/><path xmlns="http://www.w3.org/2000/svg" d="m72 40h-8c-4.417969 0-8 3.582031-8 8 0 4.421875 3.582031 8 8 8h8c4.417969 0 8-3.578125 8-8 0-4.417969-3.582031-8-8-8zm0 0" fill="#005792" data-original="#000000" style="" class=""/><path xmlns="http://www.w3.org/2000/svg" d="m72 192h8c4.417969 0 8-3.578125 8-8 0-4.417969-3.582031-8-8-8h-8c-4.417969 0-8 3.582031-8 8 0 4.421875 3.582031 8 8 8zm0 0" fill="#005792" data-original="#000000" style="" class=""/><path xmlns="http://www.w3.org/2000/svg" d="m112 192h8c4.417969 0 8-3.578125 8-8 0-4.417969-3.582031-8-8-8h-8c-4.417969 0-8 3.582031-8 8 0 4.421875 3.582031 8 8 8zm0 0" fill="#005792" data-original="#000000" style="" class=""/><path xmlns="http://www.w3.org/2000/svg" d="m152 192h8c4.417969 0 8-3.578125 8-8 0-4.417969-3.582031-8-8-8h-8c-4.417969 0-8 3.582031-8 8 0 4.421875 3.582031 8 8 8zm0 0" fill="#005792" data-original="#000000" style="" class=""/><path xmlns="http://www.w3.org/2000/svg" d="m192 192h8c4.417969 0 8-3.578125 8-8 0-4.417969-3.582031-8-8-8h-8c-4.417969 0-8 3.582031-8 8 0 4.421875 3.582031 8 8 8zm0 0" fill="#005792" data-original="#000000" style="" class=""/><path xmlns="http://www.w3.org/2000/svg" d="m232 192h8c4.417969 0 8-3.578125 8-8 0-4.417969-3.582031-8-8-8h-8c-4.417969 0-8 3.582031-8 8 0 4.421875 3.582031 8 8 8zm0 0" fill="#005792" data-original="#000000" style="" class=""/><path xmlns="http://www.w3.org/2000/svg" d="m272 192h8c4.417969 0 8-3.578125 8-8 0-4.417969-3.582031-8-8-8h-8c-4.417969 0-8 3.582031-8 8 0 4.421875 3.582031 8 8 8zm0 0" fill="#005792" data-original="#000000" style="" class=""/><path xmlns="http://www.w3.org/2000/svg" d="m312 192h8c4.417969 0 8-3.578125 8-8 0-4.417969-3.582031-8-8-8h-8c-4.417969 0-8 3.582031-8 8 0 4.421875 3.582031 8 8 8zm0 0" fill="#005792" data-original="#000000" style="" class=""/><path xmlns="http://www.w3.org/2000/svg" d="m352 192h8c4.417969 0 8-3.578125 8-8 0-4.417969-3.582031-8-8-8h-8c-4.417969 0-8 3.582031-8 8 0 4.421875 3.582031 8 8 8zm0 0" fill="#005792" data-original="#000000" style="" class=""/><path xmlns="http://www.w3.org/2000/svg" d="m392 192h8c4.417969 0 8-3.578125 8-8 0-4.417969-3.582031-8-8-8h-8c-4.417969 0-8 3.582031-8 8 0 4.421875 3.582031 8 8 8zm0 0" fill="#005792" data-original="#000000" style="" class=""/></g></svg>
